<svg xmlns="http://www.w3.org/2000/svg" xmlns:xlink="http://www.w3.org/1999/xlink" style="enable-background:new 0 0 128 128" version="1.1" viewBox="0 0 128 128" xml:space="preserve"><style type="text/css">.st0{fill:#1ca2bb}.st1{fill:#eac100}</style><g id="_x31__Chip"><g><rect width="32" height="48" x="48" y="36" class="st0"/><circle cx="20" cy="28" r="8" class="st1"/><circle cx="20" cy="92" r="8" class="st1"/><circle cx="108" cy="52" r="8" class="st1"/><circle cx="96" cy="100" r="8" class="st1"/><g><path d="M108,40c-5.2,0-9.6,3.3-11.3,8H84V32h-8V20h-8v12h-8V20h-8v12h-8v16H24v-8.7c4.7-1.7,8-6.1,8-11.3c0-6.6-5.4-12-12-12 S8,21.4,8,28c0,5.2,3.3,9.6,8,11.3V56h28v8H16v16.7c-4.7,1.7-8,6.1-8,11.3c0,6.6,5.4,12,12,12s12-5.4,12-12c0-5.2-3.3-9.6-8-11.3 V72h20v16h8v12h8V88h8v12h8V88h8V72h8v16.7c-4.7,1.7-8,6.1-8,11.3c0,6.6,5.4,12,12,12s12-5.4,12-12c0-5.2-3.3-9.6-8-11.3V64H84 v-8h12.7c1.7,4.7,6.1,8,11.3,8c6.6,0,12-5.4,12-12S114.6,40,108,40z M20,24c2.2,0,4,1.8,4,4s-1.8,4-4,4s-4-1.8-4-4S17.8,24,20,24 z M20,96c-2.2,0-4-1.8-4-4s1.8-4,4-4s4,1.8,4,4S22.2,96,20,96z M96,104c-2.2,0-4-1.8-4-4s1.8-4,4-4s4,1.8,4,4S98.2,104,96,104z M76,80H52V40h24V80z M108,56c-2.2,0-4-1.8-4-4s1.8-4,4-4s4,1.8,4,4S110.2,56,108,56z"/><rect width="8" height="8" x="56" y="64"/></g></g></g></svg>