<svg xmlns="http://www.w3.org/2000/svg" xmlns:xlink="http://www.w3.org/1999/xlink" style="enable-background:new 0 0 48 48" version="1.1" viewBox="0 0 48 48" xml:space="preserve"><g id="Icons"><g><g><path d="M33.035,11.94405h0.01h1.4c1.24,0,2.25,1.01,2.25,2.26v16.41c0,1.25-1.01,2.26-2.25,2.26h-20.88 c-1.25,0-2.26-1.01-2.26-2.26v-16.41c0-1.25,1.01-2.26,2.26-2.26h1.39h1.69h14.71H33.035z" style="fill:#f4f4f4"/><path d="M13.61739,34.77595c0.23,0.74,0.93,1.28,1.76,1.28h17.26c0.82,0,1.52-0.54,1.75-1.28" style="fill:#f4f4f4"/><polygon points="24 15.444 25.596 20.356 30.76 20.356 26.582 23.391 28.178 28.302 24 25.267 19.822 28.302 21.418 23.391 17.24 20.356 22.404 20.356" style="fill:#f4f4f4"/></g><polygon points="24 15.444 25.596 20.356 30.76 20.356 26.582 23.391 28.178 28.302 24 25.267 19.822 28.302 21.418 23.391 17.24 20.356 22.404 20.356" style="fill:#ffd872"/><path d="M33.035,11.94405h0.01h1.4c1.24,0,2.25,1.01,2.25,2.26v16.41c0,1.25-1.01,2.26-2.25,2.26h-20.88c-1.25,0-2.26-1.01-2.26-2.26 v-16.41c0-1.25,1.01-2.26,2.26-2.26h1.39h1.69h14.71H33.035z" style="fill:none;stroke:#303030;stroke-width:.7;stroke-linecap:round;stroke-linejoin:round;stroke-miterlimit:10"/><path d="M13.61739,34.77595c0.23,0.74,0.93,1.28,1.76,1.28h17.26c0.82,0,1.52-0.54,1.75-1.28" style="fill:none;stroke:#303030;stroke-width:.7;stroke-linecap:round;stroke-linejoin:round;stroke-miterlimit:10"/><polygon points="24 15.444 25.596 20.356 30.76 20.356 26.582 23.391 28.178 28.302 24 25.267 19.822 28.302 21.418 23.391 17.24 20.356 22.404 20.356" style="fill:none;stroke:#303030;stroke-width:.7;stroke-linecap:round;stroke-linejoin:round;stroke-miterlimit:10"/><line style="fill:none;stroke:#303030;stroke-width:.7;stroke-linecap:round;stroke-linejoin:round;stroke-miterlimit:10" x1="34.387" x2="13.617" y1="34.776" y2="34.776"/></g></g></svg>