<svg xmlns="http://www.w3.org/2000/svg" xmlns:xlink="http://www.w3.org/1999/xlink" id="Layer_1" data-name="Layer 1" viewBox="0 0 500 500"><defs><style>.cls-1,.cls-5{fill:none}.cls-2{fill:#2a73ff}.cls-3{opacity:.7}.cls-4,.cls-6{fill:#fff}.cls-5,.cls-6{stroke:#000;stroke-linejoin:round;stroke-width:15px}.cls-7{clip-path:url(#clip-path)}</style><clipPath id="clip-path"><circle cx="250" cy="250" r="239" class="cls-1"/></clipPath></defs><title/><circle cx="250" cy="250" r="239" class="cls-2"/><g class="cls-3"><circle cx="349.9" cy="173.8" r="40.11" class="cls-4"/><path d="M349.9,213.91h0a42.83,42.83,0,0,1,42.83,42.83v23.79a0,0,0,0,1,0,0H307.07a0,0,0,0,1,0,0V256.73a42.83,42.83,0,0,1,42.83-42.83Z" class="cls-4"/></g><circle cx="349.9" cy="173.8" r="40.11" class="cls-5"/><path d="M349.9,213.91h0a42.83,42.83,0,0,1,42.83,42.83v23.79a0,0,0,0,1,0,0H307.07a0,0,0,0,1,0,0V256.73a42.83,42.83,0,0,1,42.83-42.83Z" class="cls-5"/><g class="cls-3"><circle cx="150.1" cy="173.8" r="40.11" class="cls-4"/><path d="M107.28,213.91h85.65a0,0,0,0,1,0,0V237.7a42.83,42.83,0,0,1-42.83,42.83h0a42.83,42.83,0,0,1-42.83-42.83V213.91A0,0,0,0,1,107.28,213.91Z" class="cls-4" transform="translate(300.21 494.43) rotate(180)"/></g><circle cx="150.1" cy="173.8" r="40.11" class="cls-5"/><path d="M107.28,213.91h85.65a0,0,0,0,1,0,0V237.7a42.83,42.83,0,0,1-42.83,42.83h0a42.83,42.83,0,0,1-42.83-42.83V213.91A0,0,0,0,1,107.28,213.91Z" class="cls-5" transform="translate(300.21 494.43) rotate(180)"/><circle cx="250" cy="143.74" r="40.11" class="cls-6"/><path d="M250,183.84h0a42.83,42.83,0,0,1,42.83,42.83V281.5a0,0,0,0,1,0,0H207.17a0,0,0,0,1,0,0V226.67A42.83,42.83,0,0,1,250,183.84Z" class="cls-6"/><g class="cls-7"><rect width="303" height="233" x="98.5" y="328.5" class="cls-6"/></g><rect width="345" height="52.6" x="77.5" y="278.46" class="cls-6"/><line x1="129.5" x2="129.5" y1="338.5" y2="431.5" class="cls-6"/><line x1="367.5" x2="367.5" y1="339" y2="432" class="cls-6"/></svg>